HIERARCHY
ROOT hip
{
	OFFSET 0.000000 0.000000 0.000000 
	CHANNELS 6 Xposition Yposition Zposition Xrotation Zrotation Yrotation
	JOINT abdomen
	{
		OFFSET 0.000000 3.402643 0.000000 
		CHANNELS 3 Xrotation Zrotation Yrotation
		JOINT chest
		{
			OFFSET 0.000000 8.438565 -0.680529 
			CHANNELS 3 Xrotation Zrotation Yrotation
			JOINT neck
			{
				OFFSET 0.000000 10.207942 -0.272212 
				CHANNELS 3 Xrotation Zrotation Yrotation
				JOINT head
				{
					OFFSET 0.000000 3.130431 0.000000 
					CHANNELS 3 Xrotation Zrotation Yrotation
					End Site
					{
						OFFSET 0.000000 3.130435 0.000000 
					}
				}
			}
			JOINT lCollar
			{
				OFFSET 3.470700 6.669187 -0.816635 
				CHANNELS 3 Yrotation Zrotation Xrotation
				JOINT lShldr
				{
					OFFSET 3.198488 0.000000 0.000000 
					CHANNELS 3 Zrotation Yrotation Xrotation
					JOINT lForeArm
					{
						OFFSET 10.139888 0.000000 0.000000 
						CHANNELS 3 Yrotation Zrotation Xrotation
						JOINT lHand
						{
							OFFSET 8.370511 0.000000 0.000000 
							CHANNELS 3 Zrotation Yrotation Xrotation
							End Site
							{
								OFFSET 4.083176 0.000000 0.000000 
							}
						}
					}
				}
			}
			JOINT rCollar
			{
				OFFSET -3.470700 6.669187 -0.816635 
				CHANNELS 3 Yrotation Zrotation Xrotation
				JOINT rShldr
				{
					OFFSET -3.198488 0.000000 0.000000 
					CHANNELS 3 Zrotation Yrotation Xrotation
					JOINT rForeArm
					{
						OFFSET -10.139888 0.000000 0.000000 
						CHANNELS 3 Yrotation Zrotation Xrotation
						JOINT rHand
						{
							OFFSET -8.370511 0.000000 0.000000 
							CHANNELS 3 Zrotation Yrotation Xrotation
							End Site
							{
								OFFSET -4.083176 0.000000 0.000000 
							}
						}
					}
				}
			}
		}
	}
	JOINT lThigh
	{
		OFFSET 5.308129 -1.633274 1.361059 
		CHANNELS 3 Xrotation Zrotation Yrotation
		JOINT lShin
		{
			OFFSET -2.041588 -20.007561 0.000000 
			CHANNELS 3 Xrotation Zrotation Yrotation
			JOINT lFoot
			{
				OFFSET 0.000000 -19.190928 -1.224953 
				CHANNELS 3 Xrotation Yrotation Zrotation
				End Site
				{
					OFFSET 0.000000 -2.449906 4.627600 
				}
			}
		}
	}
	JOINT rThigh
	{
		OFFSET -5.308129 -1.633274 1.361059 
		CHANNELS 3 Xrotation Zrotation Yrotation
		JOINT rShin
		{
			OFFSET 2.041588 -20.007561 0.000000 
			CHANNELS 3 Xrotation Zrotation Yrotation
			JOINT rFoot
			{
				OFFSET 0.000000 -19.190928 -1.224953 
				CHANNELS 3 Xrotation Yrotation Zrotation
				End Site
				{
					OFFSET 0.000000 -2.449906 4.627600 
				}
			}
		}
	}
}
MOTION
Frames: 9
Frame Time: 0.033333
-3.969922 42.021343 -72.008514 6.669922 -5.986328 34.091797 19.794922 -0.048828 -0.546875 -9.951173 0.146484 0.078125 -17.402344 1.054688 -16.171648 7.021484 1.230469 -15.829866 2.207031 7.841797 0.369761 -73.642570 -18.828125 55.621849 -63.593754 -2.773438 -22.343750 -3.583984 4.873047 -0.624170 -4.218750 1.142578 -0.107422 72.382813 22.890627 33.675678 60.888672 3.740235 -63.554691 -15.029297 11.035156 -2.712974 -16.191605 26.571701 31.126617 55.091221 -0.134139 -3.182630 -29.679300 -4.545426 -10.325240 -46.333797 -21.859529 -29.824162 68.444099 -1.055393 3.062759 -15.984350 -17.017973 1.734874 
-3.644080 42.037254 -70.994164 6.855469 -5.273437 29.531252 18.398438 0.292969 -1.181591 -10.664063 -0.908203 -0.468750 -16.357422 1.230469 -13.193360 7.900392 0.175781 -12.831994 2.197266 8.544921 0.340346 -75.136719 -19.843750 55.045513 -64.033203 -2.763672 -23.671404 -1.054688 3.691406 -0.234375 -4.218750 1.142578 -0.107422 71.787109 25.732424 33.812840 61.113281 3.662110 -59.590469 -17.460936 14.599609 -4.255350 -12.353862 25.661835 32.772102 54.216545 0.051846 -3.213890 -28.513176 -0.342646 -7.726299 -45.297310 -19.084393 -30.454918 68.618851 -1.074177 3.076894 -18.166416 -20.149214 -0.035536 
-3.326603 42.063511 -69.751320 6.855469 -4.755859 23.905437 17.001953 1.103516 -1.523438 -11.728515 -1.777344 -1.015928 -14.248047 1.406250 -9.501953 8.603516 -1.240234 -9.326172 2.197266 9.248047 0.310931 -77.177734 -20.927734 54.208984 -65.429688 -2.734375 -24.013674 3.359375 0.898438 -0.146484 -4.394531 0.966797 -0.117188 70.927734 29.511721 30.873951 62.929688 3.613281 -57.959599 -16.455078 14.052733 -3.837891 -8.664259 24.697971 33.281868 54.557709 0.039949 -3.245260 -25.228390 5.448098 -4.857312 -43.881359 -14.701748 -27.452166 67.561424 -1.064269 3.397331 -21.392729 -21.036327 -1.611473 
-3.050363 42.111256 -68.337944 6.503906 -4.580078 17.206470 15.615236 2.080078 -1.825817 -12.607422 -2.119218 -1.572553 -11.953125 1.230469 -5.097446 9.130859 -2.646484 -5.097656 2.343750 9.609375 0.449219 -79.101563 -23.076174 50.972736 -67.353516 -2.783203 -25.409681 2.841797 -0.156250 -0.126980 -4.931641 0.449219 -0.156250 70.810555 34.521484 27.173504 66.005859 3.574219 -52.676392 -16.015627 11.962891 -3.125000 -5.664324 24.580692 33.078136 57.053017 0.026968 -3.176239 -19.642155 10.737603 -3.337403 -42.187653 -10.205503 -22.670036 66.523758 -1.073622 3.176033 -23.870321 -19.867025 -1.977184 
-2.808625 42.175724 -66.825256 6.142578 -4.228463 10.194468 14.404297 3.017578 -1.952611 -13.125001 -1.591797 -1.933594 -10.029297 0.351562 -0.527344 9.306642 -3.691406 -0.713519 2.705078 9.609376 0.388995 -80.976563 -26.572266 47.607418 -70.136719 -2.841797 -25.488279 2.841797 -0.332031 -0.127010 -5.810547 -0.791016 -0.097656 70.791016 40.859375 23.170450 69.316406 3.320313 -47.109940 -15.185550 10.673829 -2.724609 -4.815009 24.501631 32.522404 61.933292 0.352553 -3.411914 -11.139525 17.029572 -3.651481 -40.012768 -6.305257 -19.368101 66.161415 -0.898550 3.087747 -25.222527 -17.394199 -1.207240 
-2.561660 42.226025 -65.293045 5.791016 -3.876953 2.978516 13.710938 3.955078 -2.070313 -13.652343 -1.416016 -2.295163 -8.798827 0.000000 3.867188 9.316406 -5.107422 3.496094 3.203125 9.794831 0.457332 -82.968750 -31.699219 43.447266 -72.880867 -2.822266 -25.478514 1.787109 -2.441406 -0.068775 -6.679688 -1.689453 -0.029297 69.472656 47.597652 17.802734 73.916016 3.417969 -43.603519 -14.277344 10.751953 -2.507942 -6.740956 25.010946 31.136517 69.513657 0.663439 -3.541595 -4.119546 20.076954 -5.244762 -37.564598 -4.568752 -17.584805 65.992783 -0.742117 3.023575 -27.040434 -13.144872 0.563334 
-2.288208 42.266911 -63.766060 5.449219 -3.525390 -4.238882 13.730469 4.804688 -1.854651 -14.003907 -1.054688 -2.304688 -8.623047 -0.361328 7.900392 9.306642 -6.337891 7.371969 3.740235 9.804688 0.369431 -84.843750 -38.144531 39.701000 -76.113281 -2.626953 -23.329630 2.675781 -4.550781 -0.302734 -8.085938 -2.226563 0.029297 66.425781 55.527344 11.189692 79.248047 3.320313 -40.518143 -14.746093 11.894531 -2.859316 -9.708515 25.216494 29.739456 77.035561 1.158985 -3.720253 -4.508317 13.929253 -5.752398 -35.023540 -4.001889 -16.943621 65.620293 -1.064378 3.300467 -28.818600 -7.749563 2.658225 
-1.976190 42.311291 -62.248840 5.273438 -3.164013 -11.270237 13.916016 5.449219 -1.512745 -14.355468 -0.703125 -2.138792 -9.326173 -0.175781 11.601563 9.492188 -7.568360 11.063167 4.238281 10.166015 0.418198 -86.708984 -45.703125 36.308594 -79.443359 -2.431641 -19.325888 2.851563 -5.605469 -0.313454 -9.658202 -2.783203 0.049302 59.931644 63.261719 0.340752 84.335938 3.271485 -37.861885 -15.097657 11.874999 -2.880860 -13.730537 25.746775 28.847372 81.940994 1.509628 -3.660501 -6.982944 3.599864 -6.656043 -32.870003 -4.228407 -16.517019 65.269531 -0.888540 3.423584 -29.940601 -2.539936 5.681338 
-1.625955 42.362984 -60.722897 5.449219 -2.646484 -17.764122 14.453126 5.869141 -1.043923 -14.873046 -0.175781 -1.796905 -10.556642 0.000000 15.107421 9.833984 -8.613282 14.414063 4.560547 10.712891 0.517578 -87.753906 -54.492191 32.597656 -82.734375 -2.441406 -16.523436 1.435547 -4.726563 -0.048828 -10.712891 -2.783203 0.000474 46.748043 69.794922 -17.763674 89.189453 3.212891 -34.589844 -15.849609 12.148438 -3.113179 -18.114944 26.770741 29.764418 83.342720 1.749054 -3.831833 -9.808751 -1.047941 -7.302087 -31.026999 -5.084404 -15.072145 64.750763 -0.732290 3.313571 -30.924719 2.001900 8.787381 
